<svg id="Layer_1" data-name="Layer 1" xmlns="http://www.w3.org/2000/svg" xmlns:xlink="http://www.w3.org/1999/xlink" viewBox="0 0 1920 1085.31"><defs><style>.cls-1{opacity:0.57;}.cls-2{fill:#c6c4c4;}.cls-3{fill:url(#radial-gradient);}</style><radialGradient id="radial-gradient" cx="681.22" cy="385.88" r="964.13" gradientUnits="userSpaceOnUse"><stop offset="0.23" stop-color="#fff"/><stop offset="0.3" stop-color="#f0f0f0"/><stop offset="0.44" stop-color="#c8c8c8"/><stop offset="0.5" stop-color="#b3b3b3"/><stop offset="0.59" stop-color="#cacaca"/><stop offset="0.73" stop-color="#e7e7e7"/><stop offset="0.85" stop-color="#f9f9f9"/><stop offset="0.94" stop-color="#fff"/></radialGradient></defs><g class="cls-1"><path class="cls-2" d="M1216,679.37a293.53,293.53,0,0,1-15.67,26l-.19-.13a293,293,0,0,0,15.68-26Z"/><path class="cls-2" d="M1182,729.67a286.37,286.37,0,0,1-20.74,22.21l-.2-.21a287.9,287.9,0,0,0,20.75-22.17Z"/><path class="cls-2" d="M1138.33,771.78a289.83,289.83,0,0,1-24.93,17.37l-.18-.29a289.08,289.08,0,0,0,24.91-17.33Z"/><path class="cls-2" d="M1086.79,803.83a292.58,292.58,0,0,1-28,11.82l-.14-.38a291.75,291.75,0,0,0,28-11.78Z"/><path class="cls-2" d="M1029.72,824.5a291,291,0,0,1-29.84,5.8l-.08-.53a289.45,289.45,0,0,0,29.8-5.71Z"/><path class="cls-2" d="M969.59,833a288.18,288.18,0,0,1-30.4-.52l0-.69a289.54,289.54,0,0,0,30.33.6Z"/><path class="cls-2" d="M909,828.72a289,289,0,0,1-29.62-6.88l.23-.81A286.92,286.92,0,0,0,909.15,828Z"/><path class="cls-2" d="M850.65,811.89A294.93,294.93,0,0,1,823.09,799l.48-.88A294.25,294.25,0,0,0,851,811Z"/><path class="cls-2" d="M797,783.32A292.41,292.41,0,0,1,772.72,765l.7-.83a290.23,290.23,0,0,0,24.18,18.28Z"/><path class="cls-2" d="M750.48,744.24a288.59,288.59,0,0,1-19.93-23l.91-.71a286.35,286.35,0,0,0,19.83,22.93Z"/><path class="cls-2" d="M713.14,696.28a291.31,291.31,0,0,1-14.7-26.65l1.12-.54a288.89,288.89,0,0,0,14.6,26.56Z"/><path class="cls-2" d="M686.6,641.59a289.7,289.7,0,0,1-8.86-29.11l1.28-.32a290.66,290.66,0,0,0,8.78,29Z"/><path class="cls-2" d="M672,582.59a290.41,290.41,0,0,1-2.65-30.33l1.4,0a290.42,290.42,0,0,0,2.59,30.18Z"/><path class="cls-2" d="M669.85,521.82a286.77,286.77,0,0,1,3.74-30.21l1.45.26a289,289,0,0,0-3.76,30.06Z"/><path class="cls-2" d="M680.49,462a292.86,292.86,0,0,1,10-28.77l1.45.59a288.82,288.82,0,0,0-10,28.6Z"/><path class="cls-2" d="M703.4,405.61a292.34,292.34,0,0,1,15.69-26.1l1.37.92a293,293,0,0,0-15.65,25.93Z"/><path class="cls-2" d="M737.41,355.18a289.81,289.81,0,0,1,20.79-22.27l1.21,1.26a286.3,286.3,0,0,0-20.69,22.11Z"/><path class="cls-2" d="M781.22,313a291.26,291.26,0,0,1,25-17.43l1,1.58a287,287,0,0,0-24.86,17.27Z"/><path class="cls-2" d="M832.88,280.8A290.51,290.51,0,0,1,861,268.94l.66,1.84a291.21,291.21,0,0,0-27.9,11.73Z"/><path class="cls-2" d="M890.1,260.07A295.74,295.74,0,0,1,920,254.29l.28,2A291.24,291.24,0,0,0,890.58,262Z"/><path class="cls-2" d="M950.38,251.67a289.43,289.43,0,0,1,30.47.56l-.14,2a290.93,290.93,0,0,0-30.26-.56Z"/><path class="cls-2" d="M1011.1,256a290.12,290.12,0,0,1,29.67,6.93l-.55,1.92a289.51,289.51,0,0,0-29.47-6.89Z"/><path class="cls-2" d="M1069.56,272.93a292.07,292.07,0,0,1,27.58,12.95l-.94,1.76a290.71,290.71,0,0,0-27.4-12.86Z"/><path class="cls-2" d="M1123.21,301.65a291.48,291.48,0,0,1,24.28,18.4l-1.12,1.34a289,289,0,0,0-24.21-18.18Z"/><path class="cls-2" d="M1169.7,340.9A289.1,289.1,0,0,1,1189.59,364l-1.19.92A285.85,285.85,0,0,0,1168.53,342Z"/><path class="cls-2" d="M1206.93,389a289.12,289.12,0,0,1,14.63,26.7l-1.13.55a288.86,288.86,0,0,0-14.67-26.52Z"/><path class="cls-2" d="M1233.33,443.74a292.43,292.43,0,0,1,8.78,29.14l-1,.24a295.52,295.52,0,0,0-8.87-29Z"/><path class="cls-2" d="M1247.79,502.76a290.14,290.14,0,0,1,2.55,30.3l-.68,0a291.35,291.35,0,0,0-2.69-30.22Z"/><path class="cls-2" d="M1249.7,563.46a288.63,288.63,0,0,1-3.8,30.16l-.43-.08a287.64,287.64,0,0,0,3.7-30.12Z"/><path class="cls-2" d="M1239,623.2a290.69,290.69,0,0,1-10,28.69l-.26-.11a292.62,292.62,0,0,0,9.93-28.68Z"/></g><g class="cls-1"><path class="cls-2" d="M1178.14,659.16a248,248,0,1,1,28.16-92.33A247.54,247.54,0,0,1,1178.14,659.16Zm-.17-.09a246.7,246.7,0,1,0-61.16,74.53A247.42,247.42,0,0,0,1178,659.07Z"/></g><g class="cls-1"><path class="cls-2" d="M1146.6,642.32a214.88,214.88,0,0,1-16,25.57l-.2-.14a213.28,213.28,0,0,0,16.06-25.53Z"/><path class="cls-2" d="M1111,690.92a209.53,209.53,0,0,1-22.62,20l-.19-.25a208.84,208.84,0,0,0,22.61-19.94Z"/><path class="cls-2" d="M1063.16,727.47a213.85,213.85,0,0,1-27.35,12.79l-.14-.37A211.82,211.82,0,0,0,1063,727.15Z"/><path class="cls-2" d="M1006.92,749.08a213.21,213.21,0,0,1-29.85,4.65l0-.58a212.58,212.58,0,0,0,29.79-4.53Z"/><path class="cls-2" d="M946.86,754.09a209.69,209.69,0,0,1-30-4l.16-.77a209.64,209.64,0,0,0,29.84,4.06Z"/><path class="cls-2" d="M887.8,741.9a213.58,213.58,0,0,1-27.63-12.28l.47-.88a213.88,213.88,0,0,0,27.47,12.32Z"/><path class="cls-2" d="M834.55,713.55A209.93,209.93,0,0,1,811.47,694l.77-.79a208.91,208.91,0,0,0,22.93,19.49Z"/><path class="cls-2" d="M791.42,671.34a212.52,212.52,0,0,1-16.59-25.29l1.06-.6a210.23,210.23,0,0,0,16.46,25.18Z"/><path class="cls-2" d="M762,618.64a212.9,212.9,0,0,1-8.82-28.95l1.29-.29a213.05,213.05,0,0,0,8.72,28.79Z"/><path class="cls-2" d="M748.53,559.78a212.36,212.36,0,0,1-.34-30.27l1.44.09a209.59,209.59,0,0,0,.28,30.07Z"/><path class="cls-2" d="M752.19,499.5a211.91,211.91,0,0,1,8.25-29.13l1.46.53a208.57,208.57,0,0,0-8.25,28.91Z"/><path class="cls-2" d="M772.76,442.71A214.31,214.31,0,0,1,788.84,417l1.35,1a213.52,213.52,0,0,0-16,25.43Z"/><path class="cls-2" d="M808.42,393.92a209.9,209.9,0,0,1,22.68-20.08l1.1,1.43a208.46,208.46,0,0,0-22.54,19.86Z"/><path class="cls-2" d="M856.43,357.21a213.63,213.63,0,0,1,27.45-12.87l.69,1.82a211.59,211.59,0,0,0-27.22,12.69Z"/><path class="cls-2" d="M912.87,335.51a213.44,213.44,0,0,1,30-4.62l.16,2a212.6,212.6,0,0,0-29.68,4.57Z"/><path class="cls-2" d="M973.14,330.57a212.86,212.86,0,0,1,30.05,4l-.41,2a207.18,207.18,0,0,0-29.76-4Z"/><path class="cls-2" d="M1032.34,342.88A214.91,214.91,0,0,1,1060,355.23l-.94,1.77a211.53,211.53,0,0,0-27.43-12.24Z"/><path class="cls-2" d="M1085.65,371.42a211.8,211.8,0,0,1,23,19.67l-1.17,1.18a210,210,0,0,0-23-19.37Z"/><path class="cls-2" d="M1128.68,413.84a210.47,210.47,0,0,1,16.52,25.37l-1.16.64a210.33,210.33,0,0,0-16.54-25.1Z"/><path class="cls-2" d="M1157.94,466.65a212.59,212.59,0,0,1,8.71,29l-.94.21a213.74,213.74,0,0,0-8.85-28.76Z"/><path class="cls-2" d="M1171.15,525.51a211.69,211.69,0,0,1,.21,30.22l-.53,0a210.28,210.28,0,0,0-.43-30.12Z"/><path class="cls-2" d="M1167.3,585.66a210.4,210.4,0,0,1-8.31,29l-.29-.1a210.47,210.47,0,0,0,8.19-29Z"/></g><path class="cls-3" d="M1215.9,679.33C1140.42,820.66,964.66,874,823.33,798.56,965.61,533,1004.12,457.78,1096.67,286.76,1238,362.24,1291.38,538,1215.9,679.33Z"/></svg>