<?xml version="1.0" encoding="utf-8"?>
<!-- Generator: Adobe Illustrator 25.3.0, SVG Export Plug-In . SVG Version: 6.00 Build 0)  -->
<svg version="1.1" id="Layer_1" xmlns="http://www.w3.org/2000/svg" xmlns:xlink="http://www.w3.org/1999/xlink" x="0px" y="0px"
	 viewBox="0 0 317.1 456.5" style="enable-background:new 0 0 317.1 456.5;" xml:space="preserve">
<style type="text/css">
	.st0{fill:url(#SVGID_1_);stroke:url(#SVGID_2_);stroke-width:7;stroke-miterlimit:10;}
	.st1{fill:url(#SVGID_3_);}
	.st2{fill:none;stroke:url(#SVGID_4_);stroke-width:7;stroke-miterlimit:10;}
	.st3{fill:url(#SVGID_5_);stroke:#C6C6C5;stroke-width:7;stroke-miterlimit:10;}
	.st4{fill:url(#SVGID_6_);stroke:url(#SVGID_7_);stroke-width:7;stroke-miterlimit:10;}
	.st5{fill:url(#SVGID_8_);}
	.st6{fill:none;stroke:url(#SVGID_9_);stroke-width:5;stroke-miterlimit:10;}
</style>
<g>
	
		<image style="overflow:visible;enable-background:new    ;" width="1966" height="1966" xlink:href="44CA69EF3B6CCE8.png"  transform="matrix(0.1417 0 0 0.1417 19.2438 93.7576)">
	</image>
	
		<linearGradient id="SVGID_1_" gradientUnits="userSpaceOnUse" x1="274.352" y1="21.8445" x2="42.6111" y2="24.1411" gradientTransform="matrix(1 0 0 -1 0 256)">
		<stop  offset="0.21" style="stop-color:#FFFFFF;stop-opacity:0.4"/>
		<stop  offset="0.49" style="stop-color:#828487;stop-opacity:0.57"/>
		<stop  offset="0.81" style="stop-color:#FFFFFF;stop-opacity:0.4"/>
	</linearGradient>
	
		<linearGradient id="SVGID_2_" gradientUnits="userSpaceOnUse" x1="158.4815" y1="-96.3832" x2="158.4815" y2="142.3688" gradientTransform="matrix(1 0 0 -1 0 256)">
		<stop  offset="0" style="stop-color:#FFFFFF;stop-opacity:0.9"/>
		<stop  offset="0.91" style="stop-color:#FFFFFF;stop-opacity:0"/>
	</linearGradient>
	<circle class="st0" cx="158.5" cy="233" r="115.9"/>
	
		<image style="overflow:visible;enable-background:new    ;" width="1558" height="2250" xlink:href="44CA69EF3B6CCE9.png"  transform="matrix(0.1417 0 0 0.1417 49.2828 22.4856)">
	</image>
	
		<image style="overflow:visible;opacity:0.15;enable-background:new    ;" width="1358" height="2049" xlink:href="44CA69EF3B6CCEF.png"  transform="matrix(0.1417 0 0 0.1417 64.019 40.9058)">
	</image>
	
		<linearGradient id="SVGID_3_" gradientUnits="userSpaceOnUse" x1="247.1611" y1="73.2908" x2="73.1341" y2="75.0148" gradientTransform="matrix(1 0 0 -1 0 256)">
		<stop  offset="7.000000e-02" style="stop-color:#FFFFFF;stop-opacity:0.3"/>
		<stop  offset="0.19" style="stop-color:#9B9DA0;stop-opacity:0.5"/>
		<stop  offset="0.39" style="stop-color:#E2E3E4;stop-opacity:0.5"/>
		<stop  offset="0.52" style="stop-color:#828487;stop-opacity:0.5"/>
		<stop  offset="0.62" style="stop-color:#BABCBE;stop-opacity:0.64"/>
		<stop  offset="0.66" style="stop-color:#D5D7D8;stop-opacity:0.71"/>
		<stop  offset="0.86" style="stop-color:#B1B3B6;stop-opacity:0.8"/>
		<stop  offset="0.97" style="stop-color:#FFFFFF;stop-opacity:0.3"/>
	</linearGradient>
	<path class="st1" d="M246.7,230.8c0,48.1-39,87-87,87s-87-39-87-87c0-25.8,11.4-50.2,31.2-66.8c0-1.9-0.8-4-0.2-6.5
		c2-7.7,10.4-25.3,13-35.4c0.9-3.5,4-5.9,7.6-5.9h23.1l2-19.5c0.6-6.1-3.8-11.6-10-12.2c-0.1,0-0.2,0-0.3,0l-38.5-2.8
		c-5.9-0.4-10.4-5.3-10.4-11.2v-2.1c0.1-6.1,5.1-11.1,11.2-11.1l14-0.4c2.6,0.6,5.7,0,8.4,0h12.9l8-11h26.3l6,11h4.5
		c2.5,0,4.7,0.6,7.1,0.1l20.3,0.3c6.1,0,11.1,4.9,11.2,11l0,2.1c0.1,5.8-4.3,10.7-10,11.3l-31.3,2.8c-6.1,0.6-10.6,6.1-10,12.2
		c0,0.1,0,0.2,0,0.4l2.6,19.1h24.3c3.5,0,6.6,2.4,7.6,5.8c2.3,8.5,8.7,22.3,11.3,33.9c0.5,2.4,0,6,0,7.5
		C235,179.9,246.7,204.7,246.7,230.8z"/>
	
		<linearGradient id="SVGID_4_" gradientUnits="userSpaceOnUse" x1="119.9229" y1="207.8154" x2="187.0265" y2="-61.3151" gradientTransform="matrix(1 0 0 -1 0 256)">
		<stop  offset="0" style="stop-color:#FFFFFF;stop-opacity:0.4"/>
		<stop  offset="0.72" style="stop-color:#FFFFFF;stop-opacity:0"/>
	</linearGradient>
	<path class="st2" d="M246.7,230.8c0,48.1-39,87-87,87s-87-39-87-87c0-25.8,11.4-50.2,31.2-66.8c0-1.9-0.8-4-0.2-6.5
		c2-7.7,10.4-25.3,13-35.4c0.9-3.5,4-5.9,7.6-5.9h23.1l2-19.5c0.6-6.1-3.8-11.6-10-12.2c-0.1,0-0.2,0-0.3,0l-38.5-2.8
		c-5.9-0.4-10.4-5.3-10.4-11.2v-2.1c0.1-6.1,5.1-11.1,11.2-11.1l14-0.4c2.6,0.6,5.7,0,8.4,0h12.9l8-11h26.3l6,11h4.5
		c2.5,0,4.7,0.6,7.1,0.1l20.3,0.3c6.1,0,11.1,4.9,11.2,11l0,2.1c0.1,5.8-4.3,10.7-10,11.3l-31.3,2.8c-6.1,0.6-10.6,6.1-10,12.2
		c0,0.1,0,0.2,0,0.4l2.6,19.1h24.3c3.5,0,6.6,2.4,7.6,5.8c2.3,8.5,8.7,22.3,11.3,33.9c0.5,2.4,0,6,0,7.5
		C235,179.9,246.7,204.7,246.7,230.8z"/>
	
		<image style="overflow:visible;enable-background:new    ;" width="1148" height="1148" xlink:href="44CA69EF3B6CCEA.png"  transform="matrix(0.1417 0 0 0.1417 77.1965 172.256)">
	</image>
	
		<linearGradient id="SVGID_5_" gradientUnits="userSpaceOnUse" x1="216.4197" y1="1.8923" x2="100.5433" y2="3.0376" gradientTransform="matrix(1 0 0 -1 0 256)">
		<stop  offset="0.21" style="stop-color:#FFFFFF;stop-opacity:0.4"/>
		<stop  offset="0.49" style="stop-color:#828487;stop-opacity:0.57"/>
		<stop  offset="0.81" style="stop-color:#FFFFFF;stop-opacity:0.4"/>
	</linearGradient>
	<circle class="st3" cx="158.5" cy="253.5" r="57.9"/>
	<g transform="translate(109.72 284.28) scale(0.24)">
		
			<image style="overflow:visible;enable-background:new    ;" width="1008" height="1639" id="image" xlink:href="44CA69EF3B6CCEB.png"  transform="matrix(0.1417 0 0 0.1417 88.2486 201.7283)">
		</image>
	</g>
	<g transform="translate(109.72 284.28) scale(0.24)">
		
			<image style="overflow:visible;enable-background:new    ;" width="1008" height="1639" id="image_2_" xlink:href="44CA69EF3B6CCE6.png"  transform="matrix(0.1417 0 0 0.1417 88.2486 201.7283)">
		</image>
	</g>
	
		<linearGradient id="SVGID_6_" gradientUnits="userSpaceOnUse" x1="254.491" y1="-62.8376" x2="69.8581" y2="-61.0074" gradientTransform="matrix(1 0 0 -1 0 256)">
		<stop  offset="0.18" style="stop-color:#FFFFFF;stop-opacity:0.9"/>
		<stop  offset="0.23" style="stop-color:#F2F2F2;stop-opacity:0.86"/>
		<stop  offset="0.32" style="stop-color:#CFD0D1;stop-opacity:0.77"/>
		<stop  offset="0.45" style="stop-color:#98999C;stop-opacity:0.63"/>
		<stop  offset="0.49" style="stop-color:#828487;stop-opacity:0.57"/>
		<stop  offset="0.63" style="stop-color:#B2B3B5;stop-opacity:0.7"/>
		<stop  offset="0.84" style="stop-color:#FFFFFF;stop-opacity:0.9"/>
	</linearGradient>
	
		<linearGradient id="SVGID_7_" gradientUnits="userSpaceOnUse" x1="108.1053" y1="-61.8257" x2="211.2247" y2="-61.8257" gradientTransform="matrix(1 0 0 -1 0 256)">
		<stop  offset="0" style="stop-color:#FFFFFF;stop-opacity:0.4"/>
		<stop  offset="0.51" style="stop-color:#FFFFFF;stop-opacity:0.1"/>
	</linearGradient>
	<path class="st4" d="M116.9,270.1v113.4c0,2,1.5,7,1.5,7s4.5,20,23.8,20h41.4c0,0,15.6-4.5,19.9-21.5h-0.3c0.5-1.7,0.8-3.5,0.8-5.3
		V269c0,0-1-18.8,2.9-24.1c3.9-5.3-5.5-19.8-45-19.8s-51.4,16.8-50.3,20.5C112.8,249.4,116.8,259,116.9,270.1"/>
	
		<image style="overflow:visible;opacity:0.12;enable-background:new    ;" width="823" height="1456" xlink:href="44CA69EF3B6CCE7.png"  transform="matrix(0.1417 0 0 0.1417 105.181 218.8024)">
	</image>
	
		<linearGradient id="SVGID_8_" gradientUnits="userSpaceOnUse" x1="253.8121" y1="-62.8318" x2="69.923" y2="-61.0075" gradientTransform="matrix(1 0 0 -1 0 256)">
		<stop  offset="0.18" style="stop-color:#FFFFFF;stop-opacity:0.9"/>
		<stop  offset="0.23" style="stop-color:#F2F2F2;stop-opacity:0.86"/>
		<stop  offset="0.32" style="stop-color:#CFD0D1;stop-opacity:0.77"/>
		<stop  offset="0.45" style="stop-color:#98999C;stop-opacity:0.63"/>
		<stop  offset="0.49" style="stop-color:#828487;stop-opacity:0.57"/>
		<stop  offset="0.63" style="stop-color:#B2B3B5;stop-opacity:0.7"/>
		<stop  offset="0.84" style="stop-color:#FFFFFF;stop-opacity:0.9"/>
	</linearGradient>
	<path class="st5" d="M116.9,270.1v113.4c0,2,1.5,7,1.5,7s4.5,20,23.8,20h41.4c0,0,15.6-4.5,19.9-21.5h-0.3c0.5-1.7,0.8-3.5,0.8-5.3
		V269c0,0,0.3-18,2.9-24.1c2.1-4.8-5.5-19.8-45-19.8s-52,15.2-50.3,20.5C114.3,253.5,116.8,259,116.9,270.1"/>
	
		<linearGradient id="SVGID_9_" gradientUnits="userSpaceOnUse" x1="109.0101" y1="-61.8257" x2="209.7245" y2="-61.8257" gradientTransform="matrix(1 0 0 -1 0 256)">
		<stop  offset="0" style="stop-color:#FFFFFF;stop-opacity:0.4"/>
		<stop  offset="0.51" style="stop-color:#FFFFFF;stop-opacity:0.1"/>
	</linearGradient>
	<path class="st6" d="M116.9,270.1v113.4c0,2,1.5,7,1.5,7s4.5,20,23.8,20h41.4c0,0,15.6-4.5,19.9-21.5h-0.3c0.5-1.7,0.8-3.5,0.8-5.3
		V269c0,0,0.3-18,2.9-24.1c2.1-4.8-5.5-19.8-45-19.8s-52,15.2-50.3,20.5C114.3,253.5,116.8,259,116.9,270.1"/>
</g>
</svg>
