<svg id="Layer_1" data-name="Layer 1" xmlns="http://www.w3.org/2000/svg" xmlns:xlink="http://www.w3.org/1999/xlink" viewBox="0 0 1920 1085.31"><defs><style>.cls-1{opacity:0.57;}.cls-2{fill:url(#radial-gradient);}</style><radialGradient id="radial-gradient" cx="960" cy="542.66" r="291.11" gradientUnits="userSpaceOnUse"><stop offset="0.14" stop-color="#f1f2f2"/><stop offset="0.18" stop-color="#ede3e3"/><stop offset="0.25" stop-color="#e4baba"/><stop offset="0.36" stop-color="#d47979"/><stop offset="0.47" stop-color="#c12929"/><stop offset="0.53" stop-color="#c4483d"/><stop offset="0.63" stop-color="#c87156"/><stop offset="0.71" stop-color="#cb8e69"/><stop offset="0.78" stop-color="#cda074"/><stop offset="0.83" stop-color="#cea678"/></radialGradient></defs><g class="cls-1"><path class="cls-2" d="M1250,532.43a292.43,292.43,0,0,1-2.56,50.53l-.25,0a290.91,290.91,0,0,0,2.61-50.49Z"/><path class="cls-2" d="M1236.16,632.27a289.26,289.26,0,0,1-19.76,46.59l-.31-.16a288.65,288.65,0,0,0,19.79-46.52Z"/><path class="cls-2" d="M1188.84,721.3a294.16,294.16,0,0,1-34.47,37.06L1154,758a288.44,288.44,0,0,0,34.49-36.94Z"/><path class="cls-2" d="M1114,788.93A289.16,289.16,0,0,1,1069,812l-.28-.69a288.76,288.76,0,0,0,45-22.92Z"/><path class="cls-2" d="M1020.54,826.88a293.32,293.32,0,0,1-50.28,6.21l0-1a292.4,292.4,0,0,0,50.12-6.07Z"/><path class="cls-2" d="M919.66,830.54a289.26,289.26,0,0,1-49.39-11.32l.35-1.08a287.82,287.82,0,0,0,49.19,11.34Z"/><path class="cls-2" d="M823.61,799.44a291.45,291.45,0,0,1-42.51-27.59l.78-1a289.35,289.35,0,0,0,42.3,27.53Z"/><path class="cls-2" d="M744,737.32a292,292,0,0,1-30.59-40.43l1.19-.74A290.4,290.4,0,0,0,745,736.43Z"/><path class="cls-2" d="M690.31,651.76a289.35,289.35,0,0,1-14.85-48.48L677,603a288.23,288.23,0,0,0,14.71,48.25Z"/><path class="cls-2" d="M669.27,552.94a293.8,293.8,0,0,1,2.54-50.65l1.67.23a291.51,291.51,0,0,0-2.61,50.37Z"/><path class="cls-2" d="M683.13,452.84a289.75,289.75,0,0,1,19.79-46.71l1.64.87a287.63,287.63,0,0,0-19.75,46.39Z"/><path class="cls-2" d="M730.53,363.56a290.81,290.81,0,0,1,34.58-37.14l1.33,1.47a293.18,293.18,0,0,0-34.38,36.86Z"/><path class="cls-2" d="M805.6,295.82a290.06,290.06,0,0,1,45.19-23.09l.74,1.85a288.21,288.21,0,0,0-44.88,22.92Z"/><path class="cls-2" d="M899.32,257.9a292.44,292.44,0,0,1,50.37-6.17l.07,2a290.45,290.45,0,0,0-50,6.12Z"/><path class="cls-2" d="M1000.36,254.42a288.44,288.44,0,0,1,49.41,11.45l-.49,1.51a287.54,287.54,0,0,0-49.16-11.19Z"/><path class="cls-2" d="M1096.4,285.78a291.31,291.31,0,0,1,42.45,27.7l-.72.93A290.05,290.05,0,0,0,1095.76,287Z"/><path class="cls-2" d="M1175.84,348.1a291.62,291.62,0,0,1,30.43,40.49l-.57.36a291.15,291.15,0,0,0-30.55-40.22Z"/><path class="cls-2" d="M1229.22,433.72A289.12,289.12,0,0,1,1244,482.13l-.33.07a288.39,288.39,0,0,0-14.84-48.31Z"/></g></svg>