<svg width="102" height="161" viewBox="0 0 102 161" fill="none" xmlns="http://www.w3.org/2000/svg">
<path d="M100.69 110.45C100.69 152.24 83.6301 159.86 51.0001 159.86C18.3701 159.86 1.31006 150.54 1.31006 108.75C1.31006 66.96 49.73 1.45999 49.73 1.45999C49.73 1.45999 100.69 68.65 100.69 110.45Z" fill="url(#paint0_linear_17_10)" stroke="url(#paint1_linear_17_10)" stroke-miterlimit="10"/>
<path opacity="0.35" d="M17.8499 76.33C18.8499 96.63 31.1599 53.42 34.1899 42.4C34.2286 42.2815 34.2234 42.1531 34.1754 42.0382C34.1273 41.9232 34.0396 41.8293 33.9282 41.7736C33.8167 41.7179 33.6889 41.704 33.5681 41.7346C33.4473 41.7651 33.3415 41.838 33.27 41.94C28.92 47.6 17.2299 64 17.8499 76.33Z" fill="url(#paint2_linear_17_10)"/>
<defs>
<linearGradient id="paint0_linear_17_10" x1="-21.1199" y1="2.70999" x2="133.13" y2="216.89" gradientUnits="userSpaceOnUse">
<stop offset="0.01" stop-color="#231F20" stop-opacity="0.6"/>
<stop offset="0.26" stop-color="#67C5F0" stop-opacity="0.5"/>
<stop offset="0.34" stop-color="#80CEF2" stop-opacity="0.52"/>
<stop offset="0.5" stop-color="#C0E7F9" stop-opacity="0.56"/>
<stop offset="0.64" stop-color="white" stop-opacity="0.6"/>
</linearGradient>
<linearGradient id="paint1_linear_17_10" x1="101.19" y1="80.49" x2="0.810056" y2="80.49" gradientUnits="userSpaceOnUse">
<stop stop-color="white" stop-opacity="0.4"/>
<stop offset="0.4" stop-color="white" stop-opacity="0.5"/>
<stop offset="0.59" stop-color="white" stop-opacity="0.49"/>
<stop offset="0.65" stop-color="white" stop-opacity="0.47"/>
<stop offset="0.7" stop-color="white" stop-opacity="0.42"/>
<stop offset="0.74" stop-color="white" stop-opacity="0.35"/>
<stop offset="0.77" stop-color="white" stop-opacity="0.27"/>
<stop offset="0.8" stop-color="white" stop-opacity="0.16"/>
<stop offset="0.83" stop-color="white" stop-opacity="0"/>
</linearGradient>
<linearGradient id="paint2_linear_17_10" x1="15.5109" y1="47.6638" x2="41.5283" y2="80.8206" gradientUnits="userSpaceOnUse">
<stop stop-color="white" stop-opacity="0.6"/>
<stop offset="0.71" stop-color="white" stop-opacity="0.5"/>
</linearGradient>
</defs>
</svg>
