<svg width="102" height="162" viewBox="0 0 102 162" fill="none" xmlns="http://www.w3.org/2000/svg">
<path d="M100.69 111.45C100.69 153.24 83.6301 160.86 51.0001 160.86C18.3701 160.86 1.31006 151.54 1.31006 109.75C1.31006 67.96 49.73 2.45996 49.73 2.45996C49.73 2.45996 100.69 69.65 100.69 111.45Z" fill="url(#paint0_linear_17_5)" stroke="url(#paint1_linear_17_5)" stroke-width="2" stroke-miterlimit="10"/>
<path opacity="0.35" d="M17.8499 77.33C18.8499 97.63 31.1599 54.42 34.1899 43.4C34.2286 43.2815 34.2234 43.1531 34.1754 43.0382C34.1273 42.9232 34.0396 42.8293 33.9282 42.7736C33.8167 42.7179 33.6889 42.704 33.5681 42.7346C33.4473 42.7651 33.3415 42.838 33.27 42.94C28.92 48.6 17.2299 65 17.8499 77.33Z" fill="url(#paint2_linear_17_5)"/>
<defs>
<linearGradient id="paint0_linear_17_5" x1="-21.1199" y1="3.70996" x2="133.13" y2="217.89" gradientUnits="userSpaceOnUse">
<stop offset="0.06" stop-color="#231F20" stop-opacity="0.6"/>
<stop offset="0.26" stop-color="#67C5F0" stop-opacity="0.5"/>
<stop offset="0.38" stop-color="#88D2F3" stop-opacity="0.5"/>
<stop offset="0.62" stop-color="#DDF2FC" stop-opacity="0.5"/>
<stop offset="0.71" stop-color="white" stop-opacity="0.5"/>
</linearGradient>
<linearGradient id="paint1_linear_17_5" x1="101.69" y1="81.32" x2="0.310061" y2="81.32" gradientUnits="userSpaceOnUse">
<stop stop-color="white" stop-opacity="0.4"/>
<stop offset="0.43" stop-color="white" stop-opacity="0.23"/>
<stop offset="0.55" stop-color="white" stop-opacity="0.22"/>
<stop offset="0.59" stop-color="white" stop-opacity="0.2"/>
<stop offset="0.62" stop-color="white" stop-opacity="0.15"/>
<stop offset="0.64" stop-color="white" stop-opacity="0.09"/>
<stop offset="0.66" stop-color="white" stop-opacity="0"/>
</linearGradient>
<linearGradient id="paint2_linear_17_5" x1="15.5109" y1="48.6638" x2="41.5283" y2="81.8206" gradientUnits="userSpaceOnUse">
<stop stop-color="white" stop-opacity="0.6"/>
<stop offset="0.71" stop-color="white" stop-opacity="0.5"/>
</linearGradient>
</defs>
</svg>
